<?xml version="1.0" encoding="utf-8"?><svg viewBox="0 0 60 60" xmlns="http://www.w3.org/2000/svg" xmlns:xlink="http://www.w3.org/1999/xlink"><style>:root>svg{display:none}:root>svg:target{display:block}</style><svg fill="none" viewBox="0 0 35 35" id="Facebook" xmlns="http://www.w3.org/2000/svg"><path fill-rule="evenodd" clip-rule="evenodd" d="M17.5 0C7.835 0 0 7.835 0 17.5S7.835 35 17.5 35 35 27.165 35 17.5 27.165 0 17.5 0Zm1.824 18.269v9.52h-3.94v-9.52h-1.967v-3.28h1.968v-1.97c0-2.677 1.111-4.269 4.268-4.269h2.629v3.281h-1.643c-1.23 0-1.31.459-1.31 1.315l-.005 1.642H22.3l-.348 3.28h-2.628Z" fill="#fff"/></svg><svg fill="none" viewBox="0 0 35 35" id="Instagram" xmlns="http://www.w3.org/2000/svg"><path fill-rule="evenodd" clip-rule="evenodd" d="M17.5 0C7.835 0 0 7.835 0 17.5S7.835 35 17.5 35 35 27.165 35 17.5 27.165 0 17.5 0Zm-3.848 8.223c.996-.045 1.314-.056 3.849-.056h-.003c2.535 0 2.852.01 3.848.056.994.045 1.672.203 2.267.434a4.56 4.56 0 0 1 1.653 1.076c.52.519.838 1.04 1.077 1.653.23.594.387 1.272.434 2.266.045.995.056 1.313.056 3.848s-.011 2.852-.056 3.848c-.047.993-.204 1.671-.434 2.265a4.582 4.582 0 0 1-1.077 1.653 4.566 4.566 0 0 1-1.652 1.078c-.594.23-1.273.388-2.267.433-.995.045-1.312.056-3.847.056s-2.853-.01-3.848-.056c-.994-.045-1.672-.203-2.266-.434a4.57 4.57 0 0 1-1.653-1.077 4.573 4.573 0 0 1-1.076-1.653c-.231-.594-.388-1.272-.434-2.265-.045-.996-.056-1.313-.056-3.848s.011-2.853.056-3.849c.045-.993.202-1.671.433-2.265a4.582 4.582 0 0 1 1.078-1.653 4.57 4.57 0 0 1 1.653-1.076c.593-.231 1.272-.389 2.265-.434Z" fill="#fff"/><path fill-rule="evenodd" clip-rule="evenodd" d="M16.664 9.849h.837c2.492 0 2.787.009 3.771.053.91.042 1.404.194 1.733.322.436.169.746.371 1.073.698.327.326.529.638.698 1.073.128.329.28.823.322 1.733.044.984.054 1.28.054 3.77s-.01 2.786-.054 3.77c-.042.91-.194 1.404-.322 1.733-.169.435-.371.745-.698 1.072a2.886 2.886 0 0 1-1.073.698c-.328.128-.823.28-1.733.322-.983.044-1.279.054-3.771.054s-2.788-.01-3.772-.054c-.91-.042-1.403-.194-1.733-.322a2.891 2.891 0 0 1-1.073-.698A2.893 2.893 0 0 1 10.225 23c-.128-.329-.28-.823-.322-1.733-.045-.983-.054-1.279-.054-3.771 0-2.493.01-2.787.054-3.77.042-.91.194-1.405.322-1.734.169-.435.371-.746.698-1.073a2.897 2.897 0 0 1 1.073-.698c.33-.129.823-.28 1.733-.322.862-.04 1.195-.05 2.935-.053v.003Zm5.819 1.55a1.12 1.12 0 1 0 0 2.24 1.12 1.12 0 0 0 0-2.241ZM12.708 17.5a4.793 4.793 0 1 1 9.585 0 4.793 4.793 0 0 1-9.585 0Z" fill="#fff"/><path fill-rule="evenodd" clip-rule="evenodd" d="M17.501 14.389a3.111 3.111 0 1 1 0 6.222 3.111 3.111 0 0 1 0-6.222Z" fill="#fff"/></svg><svg fill="none" viewBox="0 0 53 31" id="Line" xmlns="http://www.w3.org/2000/svg"><path d="M37.656 1 52 15.5m0 0L37.656 30M52 15.5H1" stroke="#fff" stroke-width="1.8" stroke-linecap="round" stroke-linejoin="round"/></svg><svg fill="none" viewBox="0 0 17 22" id="Rectangle" xmlns="http://www.w3.org/2000/svg"><path d="M4.5 8H2a1 1 0 0 0-1 1v11a1 1 0 0 0 1 1h13a1 1 0 0 0 1-1V9a1 1 0 0 0-1-1h-2.5m-8 0V5a4 4 0 0 1 4-4v0a4 4 0 0 1 4 4v3m-8 0h8" stroke="#fff" stroke-width="1.8" stroke-linecap="round" stroke-linejoin="round"/></svg><svg fill="none" viewBox="0 0 53 31" id="arrowSwiperleft" xmlns="http://www.w3.org/2000/svg"><path d="M15.344 1 1 15.5m0 0L15.344 30M1 15.5h51" stroke="#fff" stroke-width="1.8" stroke-linecap="round" stroke-linejoin="round"/></svg><svg fill="none" viewBox="0 0 24 22" id="heart" xmlns="http://www.w3.org/2000/svg"><path d="M12 20C-9.2 8.233 5.64-4.541 12 3.536 18.36-4.54 33.199 8.233 12 20Z" stroke="#fff" stroke-width="1.8"/></svg><svg fill="none" viewBox="0 0 60 60" id="markermap" xmlns="http://www.w3.org/2000/svg"><path d="M30 .9C18.316.9 8.81 10.406 8.81 22.09c0 3.052.625 5.957 1.851 8.642C16.125 42.69 26.636 55.364 29.75 58.985a.33.33 0 0 0 .499 0c3.112-3.62 13.624-16.294 19.09-28.253 1.227-2.685 1.85-5.59 1.85-8.642L30 .9Zm0 0c11.681 0 21.188 9.506 21.19 21.19L30 .9Zm0 33.563c-6.825 0-12.375-5.55-12.375-12.374 0-6.824 5.55-12.375 12.374-12.375 6.824 0 12.374 5.55 12.374 12.375L30 34.463Zm0 0c6.823 0 12.374-5.55 12.373-12.374L30 34.463Z" stroke="#fff" stroke-width="1.8"/></svg><svg fill="none" viewBox="0 0 60 60" id="markermapwhite" xmlns="http://www.w3.org/2000/svg"><path d="M30 0C17.82 0 7.91 9.91 7.91 22.09c0 3.177.651 6.21 1.932 9.016 5.523 12.085 16.112 24.844 19.226 28.467a1.23 1.23 0 0 0 1.863 0c3.113-3.622 13.702-16.38 19.226-28.467 1.283-2.806 1.932-5.84 1.932-9.016C52.088 9.91 42.18 0 30 0Zm0 33.563c-6.327 0-11.475-5.148-11.475-11.474 0-6.327 5.148-11.475 11.474-11.475 6.327 0 11.474 5.148 11.474 11.475S36.326 33.563 30 33.563Z" fill="#fff"/></svg><svg fill="none" viewBox="0 0 15 22" id="user" xmlns="http://www.w3.org/2000/svg"><path d="M11.833 5.444c0 2.455-1.94 4.445-4.333 4.445-2.393 0-4.333-1.99-4.333-4.445C3.167 2.99 5.107 1 7.5 1c2.393 0 4.333 1.99 4.333 4.444ZM1 15.444C1 12.376 3.425 9.89 6.417 9.89h2.166c2.992 0 5.417 2.487 5.417 5.555v4.445c0 .614-.485 1.111-1.083 1.111H2.083C1.485 21 1 20.503 1 19.889v-4.445Z" stroke="#fff" stroke-width="1.8"/></svg></svg>