<?xml version="1.0" encoding="utf-8" ?>
<svg xmlns="http://www.w3.org/2000/svg" xmlns:xlink="http://www.w3.org/1999/xlink" width="512" height="512">
	<path fill="white" d="M0 0L0 512L512 512L512 0L0 0Z"/>
	<path fill="#141024" d="M258.929 428.976L239.362 428.983C235.302 428.982 230.996 429.589 227.094 428.21C222.096 426.442 217.627 420.966 216.875 415.692C216.461 412.79 217.072 409.711 216.59 406.813C215.552 400.56 210.022 395.044 204.14 393.226C198.972 391.629 193.035 392.223 187.666 392.222L109.43 392.251C106.24 392.252 103.038 392.537 99.9843 391.438C93.5136 389.111 89.4413 382.873 89.3331 376.152L89.314 217.545C89.3242 201.254 95.6545 196.705 111.306 196.643L120.684 196.601L120.65 157.312C120.648 156.648 120.489 155.452 120.766 154.868C127.266 154.473 133.897 154.712 140.412 154.71L150.68 154.729C155.165 154.756 159.437 155.273 163.852 155.987L176.163 158.338C199.859 163.979 221.321 176.577 238.144 194.097L242.958 199.189C243.89 200.177 246.245 202.018 246.714 203.157L246.941 157.009C245.88 156.286 243.989 155.955 242.732 155.465C217.158 145.506 207.84 115.343 225.714 93.7047C232.595 85.3752 242.096 80.6668 252.808 79.6771C276.207 78.0977 298.082 97.1903 295.243 121.272C293.457 136.431 285.475 149.009 270.812 154.834C268.996 155.555 267.087 155.741 265.305 156.413L265.409 202.841C266.107 201.879 266.949 201.593 267.733 200.787L278.041 190.09C299.802 169.467 327.524 157.158 357.46 154.843C362.033 154.489 366.73 154.707 371.322 154.705L391.361 154.77L391.264 196.648L408.083 196.778C416.013 197.565 421.904 205.16 422.51 212.782C422.778 216.153 422.562 219.709 422.564 223.097L422.574 371.297C422.535 388.672 417.187 392.234 401.431 392.244L320.118 392.234C317.329 392.238 314.298 392.01 311.537 392.406C304.207 393.457 296.217 398.694 295.214 406.62C294.811 409.801 295.401 413.283 294.659 416.385C291.819 428.247 283.578 428.966 273.793 428.974L258.929 428.976ZM365.231 184.338C357.919 184.44 350.541 184.969 343.38 186.506C303.967 194.965 271.087 232.012 270.473 272.73L270.504 325.557C271.004 324.575 271.754 324.293 272.529 323.585L277.527 319.137C298.587 301.918 321.278 292.519 348.623 289.574C357.527 288.614 366.551 288.962 375.499 288.969C376.02 288.969 378.706 289.13 378.788 288.712L378.623 184.487C376.672 184.217 374.653 184.29 372.687 184.286L365.231 184.338ZM137.223 184.566L133.388 184.638L133.324 289.037L149.06 288.98C183.068 289.033 214.389 300.458 239.519 323.803C240.273 324.483 240.998 325.125 241.634 325.919C241.301 321.26 241.447 316.549 241.445 311.88L241.453 287.025C241.454 281.641 241.676 276.153 241.341 270.781C238.47 224.734 201.338 188.784 155.985 184.804C149.82 184.263 143.418 184.566 137.223 184.566ZM361.152 318.403C356.974 318.407 352.559 318.165 348.433 318.844L339.43 320.399C322.846 324.113 308.841 331.302 295.698 341.826L289.198 347.249C288.268 348.095 287.204 348.976 286.429 349.97L285.907 350.767C285.68 351.11 285.403 351.287 285.066 351.513L305.334 351.554L381.035 351.554L381.074 318.406L361.152 318.403ZM131.131 318.403L131.282 351.441C132.074 351.855 146.788 351.565 148.731 351.564L227.29 351.554L219.262 344.35C206.997 334.277 193.78 326.16 178.343 321.98L168.472 319.812C162.071 318.733 156.132 318.427 149.654 318.419L131.131 318.403Z"/>
</svg>
